<?xml version="1.0" encoding="utf-8"?>
<!-- Generator: Adobe Illustrator 12.0.0, SVG Export Plug-In . SVG Version: 6.00 Build 51448)  -->
<!DOCTYPE svg PUBLIC "-//W3C//DTD SVG 1.1//EN" "http://www.w3.org/Graphics/SVG/1.1/DTD/svg11.dtd" [
	<!ENTITY ns_svg "http://www.w3.org/2000/svg">
	<!ENTITY ns_xlink "http://www.w3.org/1999/xlink">
]>
<svg  version="1.1" id="Layer_1" xmlns="&ns_svg;" xmlns:xlink="&ns_xlink;" width="76" height="76" viewBox="0 0 76 76"
	 overflow="visible" enable-background="new 0 0 76 76" xml:space="preserve">
<path fill="#FFFFFF" d="M38,26.917c4.618,0,6.598,2.639,5.932,8.178c0.595,0.341,0.996,0.982,0.996,1.718
	c0,0.899-0.602,1.659-1.423,1.9c-0.343,1.223-0.876,2.307-1.546,3.173v4.163c2.198,0.439,3.957,0.66,6.597,1.979
	c2.639,1.32,3.519,2.529,5.278,4.289v6.268H22.167v-6.268c1.759-1.76,2.639-2.969,5.278-4.289c2.639-1.318,4.398-1.539,6.597-1.979
	v-4.163c-0.67-0.866-1.203-1.95-1.546-3.174c-0.822-0.24-1.422-1-1.422-1.899c0-0.735,0.401-1.377,0.996-1.718
	C31.403,29.556,33.382,26.917,38,26.917z M25.861,46.84c-2.188,1.094-1.979,0.925-3.252,2.244h-9.943v-6.268
	c1.759-1.76,2.639-2.969,5.278-4.289c2.639-1.319,4.398-1.539,6.597-1.979v-4.163c-0.67-0.867-1.203-1.95-1.546-3.173
	c-0.822-0.241-1.422-1-1.422-1.9c0-0.735,0.401-1.377,0.996-1.718c-0.666-5.539,1.313-8.178,5.931-8.178
	c4.332,0,6.341,3.509,6.024,8.368c-2.858,1.132-4.441,2.716-4.435,7.331c-0.595,0.341-0.996,0.983-0.996,1.718
	c0,0.899,0.205,2.055,1.026,2.295c0.343,1.224,0.876,2.307,1.546,3.174v4.559C29.468,45.301,28.5,45.521,25.861,46.84z
	 M50.139,46.84c-2.639-1.318-3.606-1.539-5.805-1.979v-4.559c0.67-0.867,1.203-1.95,1.546-3.174
	c0.821-0.241,1.026-1.396,1.026-2.295c0-0.735-0.4-1.377-0.996-1.718c0.006-4.615-1.576-6.199-4.435-7.331
	c-0.317-4.858,1.692-8.368,6.024-8.368c4.618,0,6.598,2.639,5.932,8.178c0.595,0.341,0.996,0.982,0.996,1.718
	c0,0.899-0.602,1.659-1.423,1.899c-0.343,1.224-0.876,2.307-1.546,3.174v4.163c2.198,0.439,3.957,0.66,6.597,1.979
	c2.639,1.32,3.519,2.529,5.278,4.289v6.268h-9.943C52.117,47.765,52.326,47.934,50.139,46.84z"/>
</svg>
