<?xml version="1.0" encoding="utf-8"?>
<!-- Generator: Adobe Illustrator 12.0.0, SVG Export Plug-In . SVG Version: 6.00 Build 51448)  -->
<!DOCTYPE svg PUBLIC "-//W3C//DTD SVG 1.1//EN" "http://www.w3.org/Graphics/SVG/1.1/DTD/svg11.dtd" [
	<!ENTITY ns_svg "http://www.w3.org/2000/svg">
	<!ENTITY ns_xlink "http://www.w3.org/1999/xlink">
]>
<svg  version="1.1" id="Layer_1" xmlns="&ns_svg;" xmlns:xlink="&ns_xlink;" width="76" height="76" viewBox="0 0 76 76"
	 overflow="visible" enable-background="new 0 0 76 76" xml:space="preserve">
<path fill="#FFFFFF" d="M19,31.667c3.498,0,6.333,2.835,6.333,6.333c0,2.002-0.929,3.787-2.379,4.947
	c1.999,6.083,7.583,10.542,14.254,10.887c0,2.455,1.016,4.673,2.651,6.256L38,60.166c-10.21,0-18.808-6.902-21.381-16.295
	c-2.318-0.941-3.953-3.215-3.953-5.871C12.667,34.502,15.502,31.667,19,31.667z M45.125,15.833c3.498,0,6.334,2.835,6.334,6.333
	c0,3.498-2.836,6.333-6.334,6.333c-3.491,0-6.322-2.825-6.334-6.314c-0.262-0.013-0.525-0.02-0.791-0.02
	c-6.151,0-11.482,3.507-14.104,8.631c-1.395-0.95-3.081-1.506-4.896-1.506l-1.441,0.119C20.915,21.434,28.803,15.833,38,15.833
	c1.603,0,3.165,0.17,4.671,0.493C43.426,16.009,44.255,15.833,45.125,15.833z M45.916,47.5c1.398,0,2.689,0.453,3.737,1.219
	c2.595-2.82,4.181-6.584,4.181-10.719c0-3.459-1.109-6.659-2.992-9.264c1.76-1.532,2.897-3.76,2.986-6.255
	c3.921,3.999,6.338,9.477,6.338,15.519c0,6.874-3.128,13.018-8.039,17.083c-0.58,2.899-3.141,5.083-6.211,5.083
	c-3.497,0-6.332-2.835-6.332-6.332C39.584,50.336,42.419,47.5,45.916,47.5z"/>
</svg>
